<svg width="78" height="96" viewBox="0 0 78 96" fill="none" xmlns="http://www.w3.org/2000/svg">
<path d="M44.8676 1C42.4453 1.98237 40.4344 3.7675 39.1718 6.05618C37.9092 8.34487 37.4716 10.998 37.9325 13.5709" stroke="#C9A969" stroke-width="1.98468" stroke-linecap="round" stroke-linejoin="round"/>
<path d="M1 35.4667C1 36.7011 1.24314 37.9235 1.71553 39.0639C2.18793 40.2044 2.88033 41.2406 3.7532 42.1135C4.62607 42.9864 5.66232 43.6788 6.80278 44.1512C7.94324 44.6236 9.16558 44.8667 10.4 44.8667C11.6344 44.8667 12.8568 44.6236 13.9972 44.1512C15.1377 43.6788 16.1739 42.9864 17.0468 42.1135C17.9197 41.2406 18.6121 40.2044 19.0845 39.0639C19.5569 37.9235 19.8 36.7011 19.8 35.4667C19.8 34.2323 19.5569 33.0099 19.0845 31.8695C18.6121 30.729 17.9197 29.6928 17.0468 28.8199C16.1739 27.947 15.1377 27.2546 13.9972 26.7822C12.8568 26.3098 11.6344 26.0667 10.4 26.0667C9.16558 26.0667 7.94324 26.3098 6.80278 26.7822C5.66232 27.2546 4.62607 27.947 3.7532 28.8199C2.88033 29.6928 2.18793 30.729 1.71553 31.8695C1.24314 33.0099 1 34.2323 1 35.4667V35.4667Z" stroke="#090909" stroke-width="1.98468" stroke-linecap="round" stroke-linejoin="round"/>
<path d="M29.2002 35.4667C29.2002 37.9597 30.1906 40.3507 31.9534 42.1135C33.7162 43.8764 36.1072 44.8667 38.6002 44.8667C41.0932 44.8667 43.4842 43.8764 45.247 42.1135C47.0098 40.3507 48.0002 37.9597 48.0002 35.4667C48.0002 32.9737 47.0098 30.5828 45.247 28.8199C43.4842 27.0571 41.0932 26.0667 38.6002 26.0667C36.1072 26.0667 33.7162 27.0571 31.9534 28.8199C30.1906 30.5828 29.2002 32.9737 29.2002 35.4667V35.4667Z" stroke="#090909" stroke-width="1.98468" stroke-linecap="round" stroke-linejoin="round"/>
<path d="M29.2002 85.6C29.2002 88.093 30.1906 90.484 31.9534 92.2468C33.7162 94.0097 36.1072 95 38.6002 95C41.0932 95 43.4842 94.0097 45.247 92.2468C47.0098 90.484 48.0002 88.093 48.0002 85.6C48.0002 83.107 47.0098 80.7161 45.247 78.9532C43.4842 77.1904 41.0932 76.2 38.6002 76.2C36.1072 76.2 33.7162 77.1904 31.9534 78.9532C30.1906 80.7161 29.2002 83.107 29.2002 85.6V85.6Z" stroke="#090909" stroke-width="1.98468" stroke-linecap="round" stroke-linejoin="round"/>
<path d="M13.5332 60.5333C13.5332 61.7677 13.7763 62.9901 14.2487 64.1305C14.7211 65.271 15.4135 66.3072 16.2864 67.1801C17.1593 68.053 18.1955 68.7454 19.336 69.2178C20.4764 69.6902 21.6988 69.9333 22.9332 69.9333C24.1676 69.9333 25.39 69.6902 26.5304 69.2178C27.6709 68.7454 28.7071 68.053 29.58 67.1801C30.4529 66.3072 31.1453 65.271 31.6177 64.1305C32.0901 62.9901 32.3332 61.7677 32.3332 60.5333C32.3332 59.2989 32.0901 58.0765 31.6177 56.9361C31.1453 55.7956 30.4529 54.7594 29.58 53.8865C28.7071 53.0136 27.6709 52.3212 26.5304 51.8488C25.39 51.3764 24.1676 51.1333 22.9332 51.1333C21.6988 51.1333 20.4764 51.3764 19.336 51.8488C18.1955 52.3212 17.1593 53.0136 16.2864 53.8865C15.4135 54.7594 14.7211 55.7956 14.2487 56.9361C13.7763 58.0765 13.5332 59.2989 13.5332 60.5333V60.5333Z" stroke="#090909" stroke-width="1.98468" stroke-linecap="round" stroke-linejoin="round"/>
<path d="M44.8662 60.5333C44.8662 63.0263 45.8566 65.4173 47.6194 67.1801C49.3823 68.9429 51.7732 69.9333 54.2662 69.9333C56.7592 69.9333 59.1502 68.9429 60.913 67.1801C62.6759 65.4173 63.6662 63.0263 63.6662 60.5333C63.6662 58.0403 62.6759 55.6493 60.913 53.8865C59.1502 52.1237 56.7592 51.1333 54.2662 51.1333C51.7732 51.1333 49.3823 52.1237 47.6194 53.8865C45.8566 55.6493 44.8662 58.0403 44.8662 60.5333V60.5333Z" stroke="#090909" stroke-width="1.98468" stroke-linecap="round" stroke-linejoin="round"/>
<path d="M57.4004 35.4667C57.4004 36.7011 57.6435 37.9235 58.1159 39.0639C58.5883 40.2044 59.2807 41.2406 60.1536 42.1135C61.0265 42.9864 62.0627 43.6788 63.2032 44.1512C64.3436 44.6236 65.566 44.8667 66.8004 44.8667C68.0348 44.8667 69.2572 44.6236 70.3976 44.1512C71.5381 43.6788 72.5743 42.9864 73.4472 42.1135C74.3201 41.2406 75.0125 40.2044 75.4849 39.0639C75.9573 37.9235 76.2004 36.7011 76.2004 35.4667C76.2004 34.2323 75.9573 33.0099 75.4849 31.8695C75.0125 30.729 74.3201 29.6928 73.4472 28.8199C72.5743 27.947 71.5381 27.2546 70.3976 26.7822C69.2572 26.3098 68.0348 26.0667 66.8004 26.0667C65.566 26.0667 64.3436 26.3098 63.2032 26.7822C62.0627 27.2546 61.0265 27.947 60.1536 28.8199C59.2807 29.6928 58.5883 30.729 58.1159 31.8695C57.6435 33.0099 57.4004 34.2323 57.4004 35.4667V35.4667Z" stroke="#090909" stroke-width="1.98468" stroke-linecap="round" stroke-linejoin="round"/>
<path d="M29.2002 1H54.2669" stroke="#C9A969" stroke-width="1.98468" stroke-linecap="round" stroke-linejoin="round"/>
</svg>
